<?xml version="1.0" encoding="utf-8"?>

<!DOCTYPE svg PUBLIC "-//W3C//DTD SVG 1.1//EN" "http://www.w3.org/Graphics/SVG/1.1/DTD/svg11.dtd">
<svg version="1.1" id="Layer_1" xmlns="http://www.w3.org/2000/svg" xmlns:xlink="http://www.w3.org/1999/xlink" x="0px" y="0px"
	 viewBox="47.9 147 3672.1 1136.17" enable-background="new 47.9 147 3672.1 1136.17" xml:space="preserve">
<g>
	<path fill="#040404" d="M677.91,212.88c8.65,0.32,17.07,2.61,25.65,3.64c9.53,1,19.08,1.79,28.64,2.39
		c5.77-1.99,11.99-0.85,17.96-0.73c5.23,0.94,10.56,0.64,15.84,1.12c5.35,0.99,10.83,0.43,16.19,1.46
		c8.57,0.46,17.34,0.13,25.7,2.34c4.11,1.22,2.96,6.23,4.23,9.41c5.88,12.28,16.11,21.78,26.31,30.51
		c3.58-0.01,7.33,0.45,10.73-0.94c2.11-0.82,4.35-1.09,6.6-1.27c0.28-0.46,0.83-1.36,1.1-1.81c1.46-0.02,2.93-0.03,4.41-0.05
		c1.39-2.3,4.06-1.93,6.35-2.07c0.43-0.41,1.28-1.23,1.7-1.64c4.36-0.65,8.51-2.35,12.96-2.47c1.47-1.87,3.86-1.79,6.01-2.04
		c4.21-2.24,9.14-2.11,13.75-2.72c5.03-0.19,10.28-0.4,14.91,1.91c-0.03,3.01,0.52,6.05,0.19,9.05c-1.43,2.26-3.41,4.11-5.38,5.89
		c-3.28,0.61-7,0.86-9.47,3.37c-2.79,2.75-5.85,5.19-8.87,7.67c-0.52,0.03-1.54,0.09-2.06,0.12c-1.69,1.63-3.31,3.33-4.88,5.07
		c9.88,2.79,19.84-1.96,29.76-2.3c6.1-3.05,12.79-4.54,19.35-6.27c2.48-0.95,5.05-1.6,7.71-1.77c1.12-0.76,2.26-1.5,3.43-2.21
		c0.33-0.39,1.01-1.15,1.35-1.53c0.71,0,2.15-0.01,2.87-0.01c0.02-0.35,0.06-1.05,0.08-1.4c1.2-0.83,2.4-1.67,3.62-2.49
		c0.42-0.06,1.28-0.17,1.7-0.23c6.27-5.92,15.37-3.9,23.14-3.81c4.7,2.51,9.04,5.68,14.03,7.69c1.72,0.26,3.47,0.55,5.19,0.98
		c1.07,0.14,2.17,0.28,3.27,0.42c0.02,0.6,0.04,1.82,0.05,2.43c-1.47,0.55-2.94,1.08-4.41,1.58c1.46,1,2.97,2.04,4.47,3.04
		c-0.05,0.75-0.14,2.26-0.18,3.01c-5.7-1.21-11.79-2.14-17.38,0.02c-4.87,2.35-10.37,1.68-15.57,2.44
		c-6.36,0.6-12.56,2.34-18.95,2.56c-2.86,0.64-5.79,0.81-8.65,1.39c-2.29,0.56-4.56,1.13-6.85,1.6c-1.35,0.52-2.7,1.01-4.03,1.51
		c-5.89,1.39-11.36,4.04-16.41,7.31c-7.25,3.44-12.57,9.71-19.45,13.72c-4.99,3.01-10.89,3.92-16.6,4.47
		c-3.43,0.5-7.07,0.69-10.04,2.69c-5.14,3.27-10.17,6.88-15.98,8.87c-5.49,1.93-11.15,3.42-16.44,5.86
		c-8.65,4.05-18.11,6.08-27.57,6.99c-12.5-0.09-24.87-2.43-36.96-5.44c-0.59-0.11-1.76-0.32-2.35-0.43
		c-3.62-1.17-7.15-2.67-10.83-3.65c-3.15-0.05-6.27,1.18-9.41,0.42c-4.14-0.47-8.1-1.91-12.22-2.38c-2.57,0.55-5.06,1.42-7.59,2.1
		c-2.65-1.84-5.01-4.05-7.16-6.44c-5.55-0.75-10.7,4.21-16.11,1.8c-3.76-0.93-2-5.35-2.27-8.12c3.11-0.87,5.86-2.81,9.2-2.81
		c2.97-1.92,6.54-1.77,9.94-1.84c1.85-1.47,4.12-1.96,6.43-2.06c0.46-0.44,1.38-1.31,1.84-1.75c2.57-0.04,5.14-0.07,7.72-0.16
		c1.84-1.21,3.94-1.85,6.1-2.27c1.55-1.72,3.87-1.63,5.99-1.84c1.95-1.99,4.22-3.81,7.09-4.13c1.98-1.79,4.13-3.44,5.78-5.57
		c-4.14-2.98-7.62-6.85-9.52-11.64c-4.45-5.3-7.56-11.7-12.81-16.29c-1.05-1.19-1.59-2.71-2.31-4.08c-0.23-0.04-0.68-0.12-0.9-0.16
		c-2.13-3.62-5.74-5.99-8.06-9.46c-2.36-3.44-5.03-6.64-8.02-9.54c-3.02-0.16-6.07,0.2-9.06-0.25c-12.77-2.84-25.94-2.88-38.83-4.91
		c-1.2-0.41-2.4-0.81-3.6-1.18c-0.01-0.47-0.01-1.4-0.02-1.86c1.96-1.68,4.4-3.15,5.11-5.81c0.36-1.64,2.16-2.04,3.34-2.93
		c0.67,0.04,2.02,0.11,2.69,0.15c-1.2-1.22-2.16-2.61-2.6-4.27c4.71-0.73,9.48-0.76,14.22-1.12c-4.47-2.49-9.73-2.5-14.52-4.06
		C678.2,214.97,678.01,213.58,677.91,212.88z"/>
	<path fill="#040404" d="M335.57,216.99c1.03,0,2.06,0,3.1,0.01c0.27,0.64,0.82,1.91,1.1,2.54c0.84,4.52,1.51,9.08,1.25,13.69
		c1.68,0.44,3.41,0.59,5.09,0.04c1.38-0.17,2.76-0.31,4.15-0.45c1.98-1.44,4.34-1.94,6.74-2.07c0.01-0.43,0.03-1.28,0.04-1.71
		c0.55-0.03,1.65-0.1,2.21-0.14c1.16-1.75,3.2-1.96,5.09-2.33c5.22-1.34,10.85-0.31,15.36,2.62c5.1,2.68,10.41,5.21,16.11,6.32
		c0.09,1.13,0.18,2.27,0.29,3.42c-4.14,1.37-8.43,2.19-12.63,3.32c-0.98,0.34-1.97,0.68-2.95,1.01c-6.58,4.58-14.79,4.36-22.42,5
		c-9.76,2.74-19.93,3.73-29.55,7c-1.67,0.71-3.34,1.4-5.02,2.05c-5.67,3.1-12.23,4.6-17.15,8.96c-6.06,4.16-11.67,8.93-18.06,12.6
		c-0.43,0.07-1.28,0.21-1.71,0.27c-6.26,3.42-12.91,6.07-19.12,9.59c-13.49,4.15-25.74,11.61-39.51,14.94
		c-7.92,1.44-15.89,2.74-23.92,3.25c-6.67,0.18-13.35,0.05-20.02,0.09c-5.61,0.15-10.86-2.1-16.28-3.16
		c-0.57,0.37-1.72,1.12-2.29,1.49c-4.69,2.85-10.16,3.63-15.54,3.92c-6.49,0.53-12.48,5.63-19.09,3.09
		c-3.31-0.21-4.08-4.17-6.92-5.12c-2.47-0.03-4.87,0.74-7.31,1c0.5-1.64,1.06-3.26,1.65-4.87c1.12-0.36,2.24-0.73,3.35-1.11
		c0.45-0.12,1.35-0.38,1.81-0.5c3.4-1.24,6.96-2,10.35-3.3c-1.11-0.33-2.14-1.54-3.37-1.03c-3.84,1.1-7.75,1.88-11.71,2.37
		c-0.41-3.6,2.75-5.14,5.29-6.8c1.55,0,3.1,0.01,4.65,0.02c0.43-0.5,1.3-1.49,1.74-1.99c0.48-0.03,1.44-0.1,1.92-0.14
		c3.71-2.39,7.78-4.56,12.36-3.96c0.44-0.48,1.3-1.44,1.74-1.92c1.19,0,2.38,0,3.57,0c0.01-0.38,0.04-1.14,0.05-1.52
		c1.95-0.82,3.86-1.77,5.7-2.83c0.45-0.41,1.33-1.22,1.78-1.63c0.45-0.02,1.35-0.06,1.8-0.08c1-2.41,3.63-1.87,5.71-2.12
		c0-0.45,0.01-1.36,0.02-1.82c1.3,0,2.6,0,3.91,0c0.03-0.32,0.1-0.96,0.14-1.28c3.9-1.89,3.59-6.89,1.82-10.17
		c-2.13-1.7-3.91-3.8-5.34-6.12c-1.2-0.73-2.4-1.45-3.62-2.16c-1.82-0.48-3.63-1-5.45-1.46c-5.4-2.87-11.27-5.35-15.06-10.4
		c-1.67-1.28-3.36-2.55-4.95-3.92c-1.05-0.75-2.11-1.48-3.19-2.18c-0.42-0.15-1.27-0.44-1.69-0.59c-2.42-1.57-4.92-3.01-7.45-4.4
		c-0.05-0.91-0.1-1.83-0.15-2.74c0.62-0.83,1.25-1.66,1.87-2.49c2.42-0.1,4.93,0,7.22-0.95c4.31-1.78,9.03-1.04,13.55-1.13
		c0.45-0.53,1.35-1.59,1.8-2.12c5.54,1.81,11.43,0.54,17.06,1.8c6.5,0.46,12.96,1.65,19.51,1.31c5.21-0.28,10.33,1.55,15.53,0.73
		c7.48-1.25,15.14-0.28,22.49,1.34c0.31,0.4,0.93,1.22,1.24,1.63c6.01,3.16,11.52,7.19,17.65,10.13c4.9,0.72,9.81,1.44,14.78,1.2
		c0.29-0.5,0.86-1.52,1.15-2.02c1.45-0.03,2.9-0.06,4.36-0.1c2.77-2.5,6.73-1.42,9.84-3.13c3.24-1.32,6.84-0.63,10.25-0.9
		c2.45-1.04,5.03-1.95,7.73-1.89c7.59-0.02,15.19-0.14,22.75,0.6c4.29,0.49,8.7,0.5,12.9-0.6c0.86-1.99,1.79-3.96,2.67-5.94
		c0.28-0.02,0.83-0.08,1.1-0.11C331.81,223.84,334.08,220.63,335.57,216.99 M290.53,243.25c-2.5,1.14-4.94,2.41-7.37,3.68
		c0.56,0.51,1.67,1.54,2.23,2.06c3.61,0.01,7.22,0.05,10.84-0.12c2.8-1.45,5.95-1.78,9.04-2.1c4.6-2.69,10.1-2.93,15.21-4.01
		c0.63-0.27,1.87-0.8,2.5-1.07l0.11-0.67c-4.54-1.56-9.39-0.91-14.09-1.04C302.68,239.77,296.57,241.66,290.53,243.25z"/>
	<path fill="#040404" d="M674,221.17c0.76-0.02,2.26-0.07,3.01-0.09c-0.02,0.63-0.07,1.9-0.09,2.54c-0.72-0.01-2.15-0.02-2.87-0.03
		C674.04,222.98,674.01,221.77,674,221.17z"/>
	<path fill="#040404" d="M1211.51,361.13c0.9-0.01,2.71-0.03,3.61-0.04c1.51,1.41,3.02,2.83,4.41,4.38
		c3.76,3.58,8.3,6.11,12.94,8.37c10.84,2.64,21.6,5.97,32.76,6.93c11.95-0.5,24.89-0.13,35.1,6.94c5.25,3.62,11.85,1.75,17.76,2.43
		c6.17,0.94,12.52,1.14,18.43,3.38c5.98,1.97,10.67,6.33,15.99,9.53c7.17,1.11,13.51-2.61,20.22-4.37c4.58-2.97,9.72-4.93,14.75-7
		c5.09-1.99,10.31-3.69,15.09-6.39c4.97-1.63,10.22-2.44,14.92-4.83c1.72-0.92,3.59-1.45,5.51-1.84c0-0.31,0-0.95,0-1.27
		c0.63-0.28,1.9-0.86,2.53-1.14c4.49-1.55,9.26-2.14,13.96-1.1c3.15,1.5,6.1,3.37,9.08,5.2c3.41,2.11,7.38,2.97,11.06,4.52
		c1.89,0.14,3.8,0.29,5.72,0.48c-0.53,2.85-1.63,6.5-5.19,6.45c-8.43-0.07-15.78,4.89-24.07,5.6c-11.19,1.53-22.46,2.6-33.53,4.87
		c-9.2,3.11-17.74,8.01-25.17,14.26c7.06,4.26,15.25,6.39,22.16,10.95c5.37,5,9.82,11.05,16,15.16c7.48,5.5,15.7,10,22.71,16.14
		c2.79,2.41,6.1,4.38,9.73,5.19c2.35-0.22,4.66-0.84,7.02-1.17c0-0.38-0.01-1.16-0.02-1.54c2.94-0.99,5.9-1.9,8.95-2.54
		c0.02,1.34,0.05,2.68,0.1,4.03c-2.66,1.9-5.31,3.87-7.44,6.39c-5.59,0.31-10.47-2.9-15.94-3.48c0.66,2.18,1.26,4.38,1.69,6.63
		c-4.81,0.57-7.79-3.42-11.36-5.8c0.45,2.26,0.9,4.52,1.27,6.81c-5.49,0.54-8.79-4.66-13.84-5.62c-2.52-0.56-4.87-1.58-6.86-3.21
		c-4.61-3.51-10.87-3.1-15.59-6.37c-2.22-1.16-4.19-3.26-6.87-3.02c-4.59,0.19-8.93-1.33-13.24-2.64
		c-5.62,2.02-10.45-2.52-15.97-2.55c-7.21-1.7-14.56-2.7-21.96-3c-3.47-0.66-6.47-3.08-10.14-2.94c-8.29,4.46-17.21,7.78-26.4,9.81
		c-5.69,1.5-11.55,2.32-17.37,3.1c-10.46,0.59-20.69-2.42-31.08-2.99c-4.95-0.59-9.97-0.88-14.79-2.22
		c-2.78-0.98-5.48-2.2-8.36-2.82c-2.72,1.85-5.54,3.54-8.38,5.19c-6.46,0.34-13.16-0.9-19.39,1.3c-3,1-5.75,2.94-9.04,2.74
		c-2.8-2.29-6.04-0.26-9.04,0.27c-0.71-1.13-1.41-2.25-2.09-3.36c-3.16,1.32-6.33,2.62-9.66,3.39c0-2.94-0.92-6.51,1.96-8.45
		c0.55,0.02,1.66,0.05,2.22,0.07c1.87-1.29,3.77-2.55,5.69-3.8c-2.64-0.13-5.24-0.31-7.83-0.64c-0.06-0.57-0.19-1.72-0.26-2.29
		c0.33-0.07,1-0.22,1.33-0.3c1.1-1.46,2.39-2.76,3.75-4.01c1.03,0.02,2.09,0.03,3.16,0.05c3.3-3.54,8.48-3.52,12.58-5.64
		c3.29-0.6,6.42-1.83,9.66-2.65c2.04-1.5,4.14-2.93,6.38-4.15c0.27-0.37,0.81-1.11,1.09-1.48c0.59-0.01,1.78-0.05,2.37-0.06
		c3.12-5.23,10.96-5.3,13.25-11.39c-7.96-4.28-15.71-8.91-23.15-14c-3.33-2.29-5.19-6.05-8.36-8.49c-3.23-2.73-6.52-5.54-8.88-9.05
		c-0.34-2.8-0.15-5.63-0.11-8.44c1.1-1.93,2.17-3.88,3.28-5.81c5.25,0.47,10.42,1.58,15.67,2.11c3.23-0.04,6.37-0.96,9.6-1.25
		C1214.27,366.12,1212.71,363.72,1211.51,361.13z"/>
	<path fill="#040404" d="M1710.44,504.7c7.51-5.01,16.45-8.18,25.57-7.75c4.91-0.25,9.74,0.75,14.55,1.63
		c5.71,1.12,11.58-0.2,17.31,0.72c5.26,1.6,10.85,2.43,15.71,5.17c4.67,2.82,9.95,4.9,15.39,5.56c10.93-1.43,22.07-1.5,33.03-0.12
		c6.73-0.1,13.34,1.72,20.1,1.09c1.72,0.07,3.16-0.97,4.64-1.73c0.42-0.15,1.25-0.43,1.67-0.58c5.02-1.67,10.33-2.01,15.56-2.68
		c6.21-0.53,10.96,4.26,16.18,6.81c4.18,1.8,8.67,2.7,13.09,3.77c-0.7,0.75-0.8,2.28-2.08,2.24c-2.71,0.55-5.44,0.96-8.17,1.28
		l0.01,0.64c3.07,0.51,6.09,1.3,9.07,2.27c-0.04,0.74-0.1,2.24-0.13,2.99c-5.46,0.09-10.95-0.43-16.35,0.44
		c-5.49,1.12-11.08-0.09-16.6,0.41c-4.72,0.4-9.44,0.03-14.05-0.94c-6.23-1.42-12.63-0.84-18.94-0.94
		c-9.21-0.35-18.85,1.92-26.15,7.75c-2.34,2.01-5.44,2.74-7.81,4.64c-0.03,0.31-0.09,0.93-0.11,1.24c2.93,2.16,7.26,3.05,8.87,6.64
		c0.46,3.56,0.2,7.18,0.26,10.78c0.15,5.47-2.05,10.59-3.29,15.83c-1.17,3.96-0.82,8.13-0.62,12.19c0.79,11.39-1.3,22.84-5.5,33.43
		c-0.61,2.32-1.29,4.64-1.91,6.96c-3.46,11.36-7.29,22.67-12.98,33.14c-1.73,3.3-3.67,6.48-5.51,9.71
		c-1.51-0.41-2.99-0.81-4.45-1.23c-1.28,2.55-2.91,6.13-6.43,4.64c-0.41-2.12-0.51-4.28-0.75-6.4c-1.64,1.33-3.07,2.89-4.19,4.67
		c-1.21,0.02-2.39,0.06-3.55,0.1c-1.32-2.84-0.3-5.81-0.07-8.74c-1.88-1.02-3.63,1.46-5.34,2.01c-2.73-3.08-2.31-7.08-1.54-10.78
		c-1.16-1.07-2.51-1.88-3.61-2.97c-1.49-3.52-1.48-7.35-0.26-10.94c-4.6-3.18-4.94-9.01-4.12-14.05c-1.63-2.31-3.4-4.69-3.66-7.59
		c-0.12-5.57-3.08-10.6-2.42-16.25c-2.79-3.77-1.61-8.56-1.76-12.89c-0.12-1.73,1.05-3.14,1.75-4.61c0.03-0.4,0.1-1.2,0.13-1.6
		c-3.4-6.31-8.76-11.07-13.41-16.38c-1.26-1.09-3.54-2.35-4.81-0.67c-5.17,7.44-12.06,13.45-19.23,18.9
		c-4.25,3.03-6.38,8.15-10.58,11.21c-2.87,1.55-6.01,2.51-9.02,3.71c-0.12-1.84-0.19-3.67-0.22-5.49c-1.76,0.35-3.51,0.71-5.25,1.04
		c0.17-3.25,1.12-6.75-0.79-9.68c-2.22-3.8,2.07-8.52-1.67-11.74c0.21-2.26,0.66-4.53,0.3-6.79c-3.57,0.13-7.15,0.62-10.41,2.15
		c-4.06,1.44-7.61,4.49-12.12,4.24c-1.01-1.47-2.04-2.91-3.07-4.33c-1.26,0.18-2.5,0.38-3.71,0.58c-0.02-1.3-0.02-2.59,0.01-3.88
		c2.04-1.97,4.04-3.99,5.92-6.13c-1.17-0.43-2.23-1.38-3.51-1.02c-3.52,0.62-7.1,0.65-10.64,0.84c-2.37,0.91-4.94,0.77-7.4,0.67
		c2.05-3.21,5.67-4.83,8.11-7.67l-0.42-1.1c-2.71,0.34-5.74,2.54-8.24,0.55c0.2-1.53,1.3-2.47,2.6-3.13
		c5.62-2.74,11.87-3.51,17.77-5.42c5.01-1.61,10.61-0.99,15.34-3.55c4.51-2.52,9.35-4.36,13.9-6.81c-2.7-3.84-6.67-6.9-8.47-11.26
		c7.39-5.31,16.67-6.52,24.78-10.26c0.42-0.12,1.26-0.35,1.68-0.47c1-0.37,2.02-0.73,3.05-1.08
		C1704.4,506.54,1707.38,505.49,1710.44,504.7z"/>
	<path fill="#040404" d="M2123.2,518.46c5.75,2.75,9.52,8.11,14.07,12.37c5.67,6.18,12.56,11.29,20.4,14.37
		c10.8,4.26,21.03,9.98,32.29,13.05c7.36,2.59,16,2.62,22.12,8c-0.06,1.15-0.09,2.32-0.09,3.49c-2.25,0.75-4.46,1.54-6.66,2.33
		c-1.42,1.45-2.91,2.82-4.06,4.47c-0.46,1.89-0.26,3.86-0.27,5.79c2.63,4.34,3.97,10.57,9.47,12.18c5.59,2.49,11.52,4.66,17.76,3.45
		c1.23-0.69,2.5-1.41,3.87-1.9c2.6,0.64,4.75,2.48,7.22,3.53c-0.4-1.82-0.75-3.61-1.24-5.39c1.13-1.69,2.6-3.11,4.28-4.27
		c1.03,0.02,2.09,0.04,3.18,0.08c0.43,1.46,0.77,3.08,2.3,3.86c0.92-1.57,1.69-3.23,2.5-4.87c0.98-0.01,2-0.01,3.05,0
		c0.82,1.21,1.65,2.41,2.52,3.62c0.42,5.22,0.42,10.46,0.02,15.68c4.05-0.54,7.87-2.42,12.02-2.32c9.02,0.01,18.04,0.03,27.07,0.03
		c2.95,0.08,5.85-0.63,8.59-1.73c6-1.72,12.2-2.96,18.45-3.19c7.52,0.61,12.06,7.51,18.73,10.12c1.68,0.77,3.37,1.6,5.08,2.4
		c0,1.29,0.03,2.59,0.11,3.9c-0.63,0.31-1.88,0.95-2.51,1.27c-3.94,0.92-7.85,1.98-11.83,2.59c-8.11,2.16-16.4,0.27-24.6,0.65
		c-5.08,0.28-10.03-1.16-15.08-1.04c-7.88,0.06-15.9-0.76-23.57,1.48c-8.13,1.34-14.44,6.99-21.79,10.22
		c-6.11,3.2-12.99,4.45-19.14,7.56c-6.91,3.62-14.25,6.34-21.16,9.96c-7.5,2.52-14.88,5.46-22.53,7.47
		c-10.49,2.02-21.22,2.88-31.89,2.16c-7.92-1.17-15.96-1.49-23.79-3.2c-5.04-0.84-10.63-1.55-15.26,1.07
		c-3.09,1.62-6.68,1.17-9.95,2.04c1.26,3.34,2.5,6.72,3.32,10.23c2.3,2.44,5.71,1.96,8.77,2.03c4.27-0.05,8.37,1.38,12.54,2.18
		c2.91,1.71,5.61,4.02,5.86,7.66c3.04,0.67,6.05,1.52,9.07,2.37c10.06,5.39,19.5,13.93,31.57,13.83c3.82-0.19,7.16,2.39,11.02,1.99
		c4.37-0.33,8.63-1.49,12.95-2.26c9.13-2.02,18.61-2.01,27.68-4.47c0.44-0.12,1.33-0.38,1.78-0.51c3.68-1.66,7.39-3.92,11.58-3.81
		c3.94,0.03,7.93-0.24,11.88,0.26c4.75,1.48,8.19,5.39,12.66,7.5c3.74,1.28,7.52,2.47,11.18,4.03c-1.17,1.45-2.8,2.24-4.6,2.47
		c0.37,1.19,0.77,2.38,1.25,3.56c-8.53,0.21-16.86,3.62-25.42,2.09c-8.58-1.85-17.42-0.03-26.02-1.58c-4.31,1-8.83,0.25-13.06,1.56
		c-4.43,1.17-8.81,2.51-13.29,3.43c-1.72,0.7-3.44,1.36-5.15,1.98c-2.68,1.38-5.4,2.65-8.01,4.11c-1.51,0.86-3.19,2.26-2.45,4.2
		c2.25,1.94,5.26,2.92,7.24,5.23c1.42,2.13,2.34,4.57,3.58,6.83c0.12,0.43,0.38,1.3,0.5,1.73c0.6,2.39,0.53,5.07,2.04,7.16
		c1.46,1.93,3.13,3.72,4.38,5.83c0.66,1.36,1.26,2.87,2.51,3.87c1.54-2,2.81-4.48,5.63-4.8c1.92,4.31,1.27,9.18-0.12,13.55
		c-4.67,0.02-9.37,0.24-13.98-0.53c-0.65,1.53-1.25,3.08-1.88,4.62c-3.06-0.05-6.1-0.13-9.11-0.41c-1.64,1.74-3,3.73-4.77,5.32
		c-2.37,0.34-4.49-0.9-6.6-1.68c-7.32-0.74-12.67-6.76-19.43-9.07c-3.31-0.34-6.13-2.1-8.62-4.16c-0.95-0.06-1.87-0.11-2.75-0.15
		c-4.7-3.39-10.44-5.3-14.17-9.92c-1.99-0.01-3.95-0.02-5.89-0.03c-1.89-1.34-3.69-2.82-5.7-3.92c-1.69-0.04-3.3,0.5-4.9,0.82
		c-11.49,2.61-23.46,2.77-35.1,1.26c-5.4-0.52-10.93,0.61-16.21-0.84c-7.18-2.17-14.92-1.67-22.11,0.18
		c-5.26,1.57-10.53-1.15-15.83-0.3c-4.3,0.65-8.63,1.05-12.96,0.74c-1.93-0.96-3.92-1.79-5.91-2.54c0.43-0.77,0.88-1.52,1.36-2.27
		c2.47-0.08,5-0.1,7.32-1.19c-1.83-2.46-4.71-2.11-7.25-1.33c-0.42,0.15-1.28,0.45-1.71,0.6c-2.46,1.47-5,2.96-7.94,3.06
		c-1.24-1.33-2.48-2.64-3.73-3.91c0.61-4.81,0.09-10.82,4.44-14.06c3.89-2.28,8.54-2.09,12.86-2.88c8.71-1.57,17.68-1.29,26.29-3.55
		c5.47-2.54,10.3-6.27,15.91-8.54c3.29-1.35,6.8-2.06,10.24-2.99c2.82-0.05,5.28-1.31,7.34-3.19c-3.33-0.15-6.65-0.15-9.96-0.13
		c-0.04-1.53-0.03-3.04,0-4.55c-1.07-1.02-2.12-2.04-3.15-3.04c0.2-1.32,0.43-2.63,0.7-3.92c-1.65-0.97-3.27-1.91-4.74-3.09
		c0.67-1.86,1.06-3.83,1.93-5.62c0.98-0.65,2.08-1.17,3.17-1.72c-0.44-1.53-0.87-3.06-1.23-4.59c2.92-3.05,6.44-5.78,10.59-6.89
		c0.54-0.6,1.11-1.19,1.71-1.78c5.4,1.73,11,2.82,16.66,3.36c-1.11-2.01-2.64-3.73-4.6-4.89c-0.44-0.93-0.85-1.86-1.2-2.77
		c0.72-0.13,2.15-0.39,2.87-0.52c0.46-0.85,0.95-1.68,1.47-2.5c1.91-1.03,3.78-2.15,5.58-3.39c-0.68-1.14-1.35-2.27-2-3.38
		c-4.41,1.06-8.79,2.97-13.41,2.23c-1.03-1.01-1.31-2.44-1.76-3.71c-1.65-0.53-3.28-1.07-4.89-1.57c0.3-1.06,0.63-2.1,0.98-3.14
		c-0.32-1.63-0.6-3.27-0.82-4.89c1.36-0.61,2.75-1.22,4.16-1.82c-0.03-1.39-0.02-2.78,0.02-4.15c1.17-0.47,2.36-0.95,3.57-1.44
		c4.71-0.74,9.76-2.43,14.38-0.35c6.71-1.66,13.72-1.22,20.51-2.27c5.92-2.39,11.3-6,17.41-7.99c3.9-8.36-4.53-15.07-5.22-23.01
		c-0.44-1.15-0.8-2.28-1.15-3.41c1.31-2.86-1.28-4.07-3.19-5.55c-1.34-5.5-2.13-11.55,0.59-16.77c2.02-3.31,6.31-3.39,9.66-4.42
		c-2.59-3.44-6.52-5.47-9.11-8.88c-2.19-1.45-3.68-3.57-3.88-6.22c-5.11-4.07-5.32-11.04-8.98-16.1c-1.04-1.38-1.96-2.98-1.56-4.76
		c1.87-3.17,5.89,0.02,8.64,0.39c1.76,0.03,3.48-0.01,5.3-0.06c-2.36-3.38-7.96-3.24-8.56-7.97c3.24-0.19,6.33,0.72,9.11,2.37
		c3.84,2.12,7.74,4.37,12.15,5.08c-3.61-4.73-11.12-6.17-12.19-12.69c4.31,0.49,7.66,3.33,10.8,6.09c3.84,2.92,7.7,6.03,12.33,7.65
		c-4.26-4.29-8.95-8.13-12.68-12.93C2123.03,520.68,2123.15,519.2,2123.2,518.46 M2091.61,659.74c1.76,3.18,3.41,6.44,5.6,9.36
		c0.81,0.02,2.43,0.06,3.23,0.09c-0.77-1.64-1.55-3.26-2.35-4.85c-0.01-0.5-0.02-1.51-0.03-2.02c-0.86-1.12-1.67-2.27-2.58-3.28
		C2094.14,659.06,2092.85,659.45,2091.61,659.74 M2081.57,661.08c-0.77,0.42-2.32,1.25-3.09,1.67c2.84,4.02,7.71,5.46,11.92,7.55
		c-0.13-4.04-3.21-6.73-5.86-9.34C2083.52,660.99,2082.53,661.03,2081.57,661.08 M2063.44,700.11
		C2063.6,703.41,2066.4,698.54,2063.44,700.11z"/>
	<path fill="#040404" d="M2758,718.77c1.48,0.18,3.05,0.23,4.57,0.67c2.49,2.69,4.58,5.74,6.87,8.62
		c9.64-0.24,19.44-2.59,28.98,0.09c5.57,1.46,8.25,7.99,14.36,8.22c10.31,1.5,18.35,10.62,29.17,9.65c1.1-0.04,2.23-0.07,3.42-0.1
		c3.38-1.47,6.77-3,10.36-4c7.53-1.99,14.12-6.57,21.75-8.3c4.83-1.24,10.03-1.33,14.55-3.65c5.65-2.98,11.55-5.83,17.94-6.79
		c3.83-0.35,8.07-0.79,11.47,1.49c4.5,2.7,8.97,5.51,14.02,7.12c2.24,0.55,2.86,3.05,4.17,4.69c0.01,0.59,0.04,1.75,0.05,2.33
		c-3.64,0.12-7.2,0.72-10.74,1.42c-5.17,1.81-10.63,1.81-16,1.97c-10.14,1.52-20.46,1.53-30.44,3.99
		c-6.65,2.2-13.43,4.78-18.72,9.52c-4.13,3.91-6.83,9.06-10.93,13c1.95,1.86,4.16,3.41,6.3,5.08c2.76,2.21,4.11,5.61,5.69,8.69
		c0.43,2.32,0.93,4.64,1.34,6.98c3.74,5.2,8.09,10.17,9.96,16.45c0.63,2.76,2.86,4.59,4.85,6.46c-0.01,0.69-0.01,2.08-0.02,2.78
		c-2.26-0.37-4.49-0.99-6.76-0.65c0.28,1.83,0.56,3.68,0.85,5.53c-1.57-0.16-3.09-0.31-4.58-0.53c-1.23-0.56-2.44-1.11-3.6-1.66
		c-0.43,1.45-0.82,2.9-1.13,4.37c-0.62,1.08-1.21,2.16-1.76,3.25c-2.68-1.24-5.09-2.91-7.22-4.92c-1.46,1.83-3.07,3.53-4.87,5.01
		c-1.95-2-3.54-4.27-5.12-6.52c-1.24,0.17-2.43,0.42-3.57,0.74c-2.51-1.46-4.03-4.03-6.39-5.65c-3.35,0.16-5.87-2.12-8.36-3.97
		c-3.41,0.25-6.57-0.84-9.18-2.96c-0.94-0.12-1.84-0.21-2.7-0.3c-2.23-1.34-4.65-2.33-6.82-3.7c-0.88-1.41-1.37-3.01-1.98-4.49
		c-0.53,0.4-1.59,1.22-2.11,1.62c-1.7-1.2-3.34-2.48-4.92-3.77c-6.26,0.18-12.27,1.87-18.15,3.85c-7.04,2.05-14.41,1.24-21.55,2.5
		c-9.66,0.29-19.36,0.16-28.91,1.79c-7.31,1.03-14.43,3.02-21.64,4.51c-2.32,1.08-4.64,2.13-6.98,3.11
		c-5.32,2.85-10.34,6.31-16,8.47c-1.88,0.39-3.73,0.85-5.55,1.33c0.01,0.58,0.03,1.76,0.04,2.34c6.24,7.89,13.73,14.64,20.77,21.8
		c3.49,3.41,3.66,8.64,4.75,13.13c1.44,5.95-1.22,12.65,2.2,18.1c1.09,2.23,2.01,4.56,2.6,7c0.46,1.03,0.96,2.06,1.5,3.1
		c1.32,6.38,2.4,12.87,2.19,19.41c-0.1,7.41,1.83,14.66,2.13,22.04c-2.45,0.04-4.86,0.04-7.26,0c-0.95,2.96-0.97,6.07-0.96,9.16
		c-0.91,0.48-1.77,0.98-2.6,1.49c-1.28-0.25-2.52-0.5-3.72-0.73c-1.01-1.25-2.01-2.47-3.03-3.64c-0.88,2.29-1.2,4.81-2.35,6.99
		c-1.32,1.12-3.29,0.54-4.84,0.86c-0.82-0.92-1.6-1.82-2.36-2.71c-0.05-1.95-0.09-3.9-0.09-5.83c-0.92,0.47-1.81,0.97-2.66,1.47
		c-0.41,1.66-0.82,3.32-1.25,4.98c-0.64-0.02-1.93-0.06-2.57-0.08c-1.1-1.14-2.19-2.25-3.25-3.36c-0.39-1.91-0.82-3.8-1.27-5.67
		c-0.76,0.03-2.27,0.08-3.03,0.11c-1.46-2.06-2.76-4.21-3.67-6.53c-0.44-1.65-0.91-3.26-1.38-4.86c-3.17-2.07-5.91-4.81-7.6-8.2
		c-1.28-2.89-4.68-3.8-6.32-6.37c-2.55-4.32-6.31-7.69-9.25-11.7c-4.19-2.31-4.15-8.05-8.61-9.98c-0.58-2.34-1.05-4.72-1.22-7.11
		c-1.21-2.48-3.29-4.21-5.94-4.88c-0.46-1.12-0.92-2.26-1.28-3.35c-3.54-3.77-6.22-8.23-9.16-12.45c-1.41-1.31-2.69-2.72-3.87-4.19
		c-3.68-2.32-7.2-4.93-9.99-8.27c-12.04-2.66-24.49,0.21-36.54-2.06c-3.66-0.41-7.33-1.66-11-0.95c-3.7,1.28-7.03,3.88-11.09,3.82
		c-3.95,0.08-7.69,1.42-11.47,2.33c-2.33,0.72-4.65,1.43-6.98,2c-2.11,0.58-4.21,1.14-6.3,1.67c-0.16-1.9-0.2-3.81-0.42-5.68
		c-1.98-1.81-4.89-1.82-7.19-3.03c2.03-1.88,4.51-3.51,5.12-6.42c-4.46-0.02-8.97,0.3-13.31-0.86c-0.91-0.92-1.8-1.83-2.66-2.72
		c0.99-2.28,1.92-4.59,2.53-7c0.65-0.7,1.33-1.39,2.04-2.07c5.27-0.8,10.38-2.39,15.65-3.23c5.19-0.95,10.47-1.31,15.67-2.27
		c4.7-0.99,8.19-4.7,12.73-6.14c2.51-0.81,5.2-1.52,7.08-3.56c-1.17-0.75-2.27-1.54-3.3-2.37c-0.19-3-0.05-6.04-0.82-8.96
		c1.19-2.46,1.86-5.12,1.33-7.84c0.11-0.45,0.31-1.33,0.42-1.77c1.04-0.09,2.11-0.17,3.23-0.25c12.61-4.5,26.24-4.76,39.13-8.27
		c4.14-1.15,8.34-2.14,12.51-3.26c6.5-1.71,13.37-0.58,19.66,1.48c0.47,0.08,1.41,0.23,1.89,0.31c2,1.25,3.99,2.56,6,3.85
		c4.89-0.12,10.02-0.31,14.5,2.06c6.19,2.98,12.43,5.87,18.64,8.85c0.44,0.07,1.32,0.2,1.76,0.27c1.01,0.54,2.04,1.11,3.08,1.7
		c5.57,1.48,11.34,1.24,17.06,1.19c1.57-2.38,3.26-4.69,4.82-7.09c-6.87-0.08-13.59,1.52-20.15,3.35c-0.3-0.62-0.9-1.86-1.2-2.48
		c1-2.2,2.61-3.98,5.18-4.25c0.68-2.36,0.78-4.83,0.88-7.27c7.2-1.96,14.5-3.63,21.96-4.3c6.56-0.48,11.43-5.44,17.4-7.63
		c4.2-1.57,8.05-3.95,12.23-5.6c0.59-0.46,1.77-1.37,2.35-1.82c-1.63-2.27-3.27-4.54-4.57-6.99c-1.04-0.41-2.07-0.8-3.04-1.17
		c-3.59-3.02-8.4-5.18-10.22-9.78c0.83-1.46,2.01-2.69,3.09-3.99c-0.57,0-1.73,0-2.3,0c-0.04-1.2-0.04-2.39,0-3.57
		c1.06-1.1,2.15-2.19,3.26-3.27c7.61-1.87,15.47-0.86,23.23-1.24c-0.84-1.21-1.69-2.41-2.5-3.58c0.08-0.67,0.22-2.01,0.29-2.67
		c3.63,1.72,6.87,4.12,10.19,6.38c1.33-0.06,2.69-0.12,4.1-0.18c-1.56-2.09-3.06-4.2-4.57-6.29C2758,720.86,2758,719.47,2758,718.77
		z"/>
	<path fill="#040404" d="M3248.07,756.85c6.47-1.42,13.15-0.78,19.73-0.74c0.06,1.76,0.12,3.53,0.22,5.31
		c-1.93,1.89-3.69,3.92-5.25,6.1c0.17,6.15,4.42,10.92,8.56,15.01c2.15,2.26,5.34,2.73,8.17,3.79c3.53,1.21,6.82,3.02,10.07,4.89
		c2.99,1.75,5.8,3.81,8.8,5.59c6.08,2.52,12.83,2.93,19.16,1.01c5.45-2.5,11.25-4.1,16.9-6.09c1.64-0.73,3.32-1.41,5.05-2.03
		c0.96-0.48,1.95-0.95,2.98-1.42c4.59-1.7,9.16-3.59,14-4.56c6.38-1.83,12.23-4.96,18.08-8.06c7.5-3.37,17.15-4.45,24.16,0.65
		c3.98,2.97,8.27,5.58,12.95,7.35c3.06,1.36,2.23,4.82,2.49,7.56c-6.03,0.74-12.12,0.62-18.16,0.77c-6.38-0.1-12.66,1.31-19.03,1.09
		c-5.65,0.78-11.39,0.78-16.95,2.04c-10.22,2.56-19.94,7.12-28.22,13.65c-2.51,2.21-4.88,4.62-6.58,7.51
		c-1.4,6.2-4.7,11.79-7.98,17.17c-1.67,9.59-4.84,19.17-10.93,26.9c-9.22,13.74-17.65,27.98-26.77,41.78
		c-1.84-0.41-2.38-2.67-4.04-3.3c-1.37,2-2.28,4.28-3.79,6.17c-3.75,0.24-2.36-5.36-3.01-7.73c-2.06,1.17-3.47,3.06-4.55,5.1
		c-1.04-0.5-2.32-0.53-2.96-1.47c-0.34-2.85-0.21-5.72-0.38-8.57c-1.57,1.43-2.96,3.02-4.26,4.66c-0.63,0.02-1.87,0.05-2.49,0.06
		c-0.83-2.53-0.97-5.13,0.09-7.61c1.98-0.51,3.95-1.11,5.94-1.75c-0.01-0.67-0.02-2.01-0.03-2.67c-1.26-0.03-2.48-0.05-3.65-0.06
		c-1.01,1.14-1.97,2.29-2.92,3.45c-1.18-0.18-2.39-0.36-3.48-0.51c-0.04-3.04-0.03-6.07-0.2-9.09c-1.03-2.9-0.8-6.01-1.03-9.01
		c-1.48-4.58-0.24-9.48-1.35-14.12c0.24-1.57,0.48-3.14,0.78-4.7c-9.74,0.59-19.48-0.48-29.2-0.14c-6.4,0.14-12.88,0.11-19.06-1.68
		c-2.47-0.13-4.92-0.16-7.34-0.15c-3.24,1.92-6.6,4.23-10.53,3.98c-3.39-0.15-6.57,1.11-9.43,2.75c-3.49,1.98-7.2,3.62-10.27,6.22
		c-0.46-0.01-1.38-0.04-1.84-0.05c-0.87-2.25-1-4.99-2.78-6.72c-1.77-0.25-3.58-0.3-5.28-0.43c0.96-3.39,4.24-5.26,5.75-8.3
		c-2.54-2.99-6.66-0.84-9.71-0.06c-1.96,0.42-3.98,0.61-5.91,0.82c0.78-2.57,1.53-5.25,3.16-7.44c3-2.06,6.72-2.71,10.17-3.78
		c6.12-1.61,12.18-3.75,18.56-4.18c7.39-3.44,14.16-8.1,21.76-11.14c1.46-3.71,0.26-7.61-0.4-11.33c-1.25-1.11-3.29-1.68-3.61-3.47
		c-0.59-2.63-1.73-5.07-3.47-7.1c-3.45,4.13-8.24,6.75-11.93,10.62c-0.66-3.39-3.29-1.87-5.44-1.29c-0.38-0.53-1.15-1.58-1.53-2.1
		c-0.78,0-2.34,0-3.12,0.01c-0.67-5.85,2.86-10.68,6.05-15.18c2.57-3.28,6.19-5.46,9.24-8.24c-0.55-1.73-1-3.47-1.39-5.21
		c10.04-6.84,22.38-8.84,33.88-12.08c4.12-1.19,8.24-2.45,12.41-3.57c1.17-0.38,2.31-0.75,3.57-1.09
		C3236.38,759.5,3242.14,757.8,3248.07,756.85z"/>
	<path fill="#040404" d="M3501.48,904.45c5.17-1.24,10.35,0.55,15.48,1.29c4.02,0.87,7.95-0.98,12-0.81
		c5.98-0.28,11.93,1.96,16.51,5.78c3.6,2.94,7.81,5.15,12.41,6.11c11.98-0.63,24.13,1.52,36.09-0.59
		c6.04-0.13,12.01-1.17,18.06-1.28c2.96-0.05,5.7-1.32,8.54-2.12c4.05-1.91,7.46-5.03,11.75-6.48c3.05-1.01,6.27,0.04,9.29,0.84
		c2.21,2.71,4.94,4.97,8.21,6.35c0.41,1.29,0.92,2.59,1.47,3.88c-6.48,2.97-11.83,8.67-19.18,9.37c-5.06,0.43-10.06,1.56-15.13,1.23
		c-7.08-0.39-14.08,0.79-21.1,1.21c-6.25,0.9-12.85,1.03-18.49,4.16c-6.69,3.7-12.58,9.21-20.27,10.78
		c-1.72-0.03-1.96,1.6-2.38,2.85c1.03,1.39,2.08,2.86,3.01,4.39c4.73,8.29,10.84,15.64,16.85,23.03c5.37,8.76,6.27,19.47,6.56,29.52
		c0.66,3.34,2.15,6.46,3.55,9.57c0.28,0.98,0.61,1.98,1,2.97c1.39,5.11,3.19,10.14,4.07,15.38c0.76,9.34,3.1,18.51,6.42,27.26
		c-2.54-0.6-5-1.5-7.25-2.73c0.03,1.25,0.09,2.5,0.27,3.79c0.42,1.66,0.69,3.38,1.01,5.1c-0.79,0.48-2.36,1.44-3.15,1.92
		c-3.07-0.96-4.35-3.81-5.38-6.56c-0.41,0.43-1.23,1.3-1.64,1.74c0.42,3.57,0.65,7.18,0.08,10.76c-1.64-0.11-3.21-0.12-4.74-0.33
		c-0.95-0.99-1.68-2.11-2.42-3.17c-0.09-1.8-0.13-3.57-0.15-5.34c-0.29-0.65-0.86-1.95-1.15-2.6c-0.37,0.41-1.12,1.24-1.5,1.65
		c-0.21,2.52-0.58,5.07-1.61,7.41c-0.45,1.69-2.3,1.04-3.49,1.02c-1.73-2.22-2.6-4.93-3.39-7.57c-3.45-2.9-6.22-6.52-6.92-11.07
		c-2.39-1.93-5.48-3.38-6.65-6.38c-0.92-2.08-2-4.07-3.29-5.91c-0.62,0.06-1.87,0.17-2.5,0.23c-1.29-1.48-2.54-2.96-3.64-4.53
		c-1.05-2.3-1.96-4.92-4.49-5.9c-2.52-1.14-3.69-3.73-4.6-6.14c-0.21-0.51-0.62-1.53-0.82-2.04c-1.82-0.97-3.48-2.13-4.78-3.68
		c-0.42-1.54-0.83-3.06-1.22-4.56c-1.53-1.18-3.31-2.1-4.4-3.67c-1.15-2.21-1.2-4.75-1.45-7.15c-4.39-1.41-6.72-5.53-10.06-8.35
		c-2.14-3.48-5.15-6.42-6.67-10.24c-0.7-1.71-1.94-3.08-3.04-4.48c-0.05-0.45-0.16-1.35-0.21-1.8c-1.19-0.79-2.35-1.56-3.46-2.32
		c-2.73-4.78-6.67-8.76-9.49-13.49c-4.77-1.91-10.15-1.17-15.18-1.51c-4.57-0.57-9.24,1.26-13.66-0.53
		c-5.09-1.21-10.8-4.21-15.71-1.05c-3.94,2.02-8.47,0.94-12.62,1.93c-5.62,0.67-10.95,2.71-16.52,3.47
		c-0.88-1.41-1.43-2.96-2.2-4.37c-1.39-0.61-3.01-0.67-4.38-1c0.75-1.28,1.56-2.52,2.35-3.8c-1.98-1.58-4.4-0.13-6.56-0.04
		c-1.92-1.99-4.7-3.92-4.64-6.95c4.59-3.41,10.19-5.07,15.62-6.64c8.9-2.93,18.55-3.19,26.94-7.62c2.12-0.94,4.26-1.88,6.43-2.8
		c0.09-2.31,0.08-4.67,1.03-6.82c-0.67-3.57-1.06-7.18-0.98-10.8c7.69-1.22,15.32-3.16,23.15-3.32c4.02-0.35,7.86-1.93,11.95-2.07
		C3486.66,908.26,3493.96,905.79,3501.48,904.45z"/>
	<path fill="#040404" d="M3158.46,997.83c4.5-2.35,9.21-4.92,14.46-4.86c3.77,0.06,8.04-0.71,11.27,1.8
		c4.64,3.37,9.77,6.41,15.68,6.66c0.02,1.17,0.09,2.35,0.19,3.55c-0.52,0.01-1.56,0.03-2.08,0.04c-0.07,1.47-0.05,2.96-0.03,4.46
		c-4.94,0.92-9.89,1.68-14.84,2.37c-6.71,0.5-13.47-0.36-20.12,0.73c-6.37,0.98-12.87-0.29-19.18,1.01
		c-6.73,1.19-13.67,2.27-19.76,5.51c-4.67,3.24-8.19,7.8-12.29,11.67c-2.3,2.51-5.33,4.17-7.69,6.59c-0.67,1.45,1.1,1.99,1.98,2.84
		c5.87,4.44,12.02,8.61,16.88,14.23c0.08,0.46,0.24,1.39,0.31,1.85c0.36,1.37,0.76,2.74,1.25,4.12c1.39,6.64-0.64,13.63,1.59,20.15
		c0.56,0.97,1.16,1.96,1.79,2.95c0.11,0.44,0.32,1.32,0.42,1.76c1.13,4.03,2.01,8.13,3.1,12.17c1.55,8.23-0.21,16.69,1.01,24.97
		c0.95,4.92,0.56,9.97,0.55,14.96c-1.76-0.41-3.55-0.84-5.17-1.47c-3.4,1.67-1.21,6.51-1.78,9.53c-1.04,0.51-2.03,1.03-2.98,1.57
		c-0.95-0.73-1.86-1.44-2.72-2.15c-0.3-2.14-1.08-4.17-2.75-5.58c-0.63,2.79-1.1,5.64-1.96,8.38c-0.8,1.58-2.87,1.3-4.28,1.41
		c-2.47-3.2-2.13-7.61-2.42-11.43c-0.97,0.93-1.91,1.87-2.8,2.84c-0.11,0.96-0.17,1.94-0.18,2.93c-0.36,0.65-1.07,1.96-1.43,2.61
		c-0.5,0-1.49,0-1.99,0c-0.87-0.8-1.71-1.59-2.52-2.36c-0.01-1.27,0.02-2.53,0.1-3.77c-1.27-0.79-2.53-1.58-3.74-2.33
		c-0.73-1.01-1.46-2.02-2.11-2.99c-0.88-2.29-0.7-5.58-3.44-6.47c-2.17-0.86-3.55-2.74-4.83-4.55c0.02-0.51,0.05-1.54,0.06-2.06
		c-0.73-0.84-1.42-1.66-2.08-2.48c-1.25,0-2.46,0.01-3.64,0.04c-0.79-1.2-1.56-2.4-2.27-3.58c0.01-0.51,0.03-1.54,0.05-2.06
		c-1.79-2.69-4.87-4.45-5.77-7.68c-0.67-2.55-2.38-4.53-4.22-6.29c-0.13-1.59-0.21-3.18-0.25-4.74c-1.46-2.5-2.02-5.32-1.99-8.17
		c-3.75-4.7-7.56-9.4-12.3-13.13c-3.2-5.41-8.64-9.01-13.08-13.33c-8.48-0.24-16.88-1.62-25.38-1.09
		c-5.87,0.59-11.57-1.33-17.41-0.96c-3.26,1.97-6.7,4.26-10.67,4c-4.46-0.23-8.43,2-12.55,3.24c-1.87,0.94-3.72,1.91-5.46,3.02
		c-1.53-0.47-2.57-1.62-3.44-2.83c-1.22-2.13-4.08-1.28-6.02-1.87c2.29-3.45,6.35-5.12,8.69-8.54c-0.87-0.81-1.7-1.53-2.51-2.26
		c-0.51,0.5-1.54,1.5-2.06,2c-1.07,0.31-2.11,0.64-3.11,0.99c-2.74,0.67-5.64,1.8-8.42,0.95c-2.14-0.86-3.7-2.64-5.43-4.02
		c0.56-1.8,1.2-3.56,1.85-5.33c2.29-4.41,7.8-4.95,11.96-6.68c5.4-1.7,10.9-3.22,16.57-3.76c4.79-0.46,9.11-2.69,13.43-4.66
		c1.49-0.47,3-0.96,4.57-1.4c-0.04-0.55-0.13-1.67-0.17-2.23c-1.08-1.77-2.32-3.47-2.93-5.44c0.6-2.28,2.19-4.12,3.42-6.08
		c-1.44-0.48-2.79-0.93-4.16-1.39c-0.5-0.77-0.96-1.52-1.38-2.26c-1-0.54-1.96-1.09-2.88-1.62c-0.03-1.59-0.03-3.17,0.02-4.73
		c4.64-2.43,9.95-2.69,14.99-3.87c11.49-2.55,23.28-3.95,34.53-7.57c5.51-1.74,11.43-2.27,17.14-1.18c4.31,0.99,8.61,2.09,12.9,3.25
		c4.78,1.08,9.89,1.08,14.36,3.35c5.59,2.44,10.92,5.48,16.61,7.73c3.26,0.87,6.76,2.1,10.06,0.56c11.24-3.48,22.8-5.86,34.36-8.04
		c4.97-0.58,10.12-0.95,14.76-3.08C3157.14,998.15,3158.02,997.94,3158.46,997.83z"/>
	<path fill="#040404" d="M2730.46,1056.84c4.73-1.87,9.17-5.15,14.5-4.89c3.24,0.17,6.91-0.71,9.82,1.23
		c4.48,2.77,9.8,3.46,14.77,4.99c0.34,0.62,1.03,1.85,1.37,2.46c0.01,0.43,0.01,1.29,0.02,1.72c-1.87,0.78-3.69,1.59-5.49,2.44
		c-1.97,0.48-3.91,1.01-5.83,1.49c-1.99,1.22-4.01,2.37-6.03,3.48c-0.53,0.26-1.6,0.77-2.14,1.02c-7.38,1.61-14.97,1.38-22.46,1.08
		c-11.62-2.13-23.65,0.16-34.51,4.43c-7.96,2.26-14.42,7.56-21.5,11.55c-2.57,1.58-5.56,2.68-7.36,5.21
		c5.55,4.92,13.44,7.12,17.81,13.38c1.09,2.71,2.25,5.41,3.36,8.14c0.95,3.94,1.67,7.94,2.65,11.9c1.12,5.22,0.59,10.98,3.45,15.72
		c0.69,1.44,1.3,2.92,1.98,4.41c0.06,0.47,0.17,1.4,0.23,1.87c0.55,1.04,1.15,2.08,1.79,3.12c0.09,0.46,0.26,1.36,0.34,1.81
		c0.36,1.33,0.7,2.68,1.1,4.05c0.45,1.69,0.87,3.42,1.41,5.12c0.72,5.29,1.77,10.53,2.56,15.82c0.85,4.05,1.89,8.07,3.03,12.06
		c0.45,1.7,0.86,3.42,1.39,5.14c0.14,0.45,0.42,1.37,0.55,1.83c0.83,2.44,1.5,4.94,1.9,7.51c-0.52,0.02-1.55,0.05-2.07,0.07
		c-0.11,0.67-0.33,2-0.44,2.66c-2.28-1.9-4.01-4.52-6.85-5.6c0.18,2.86,0.78,5.69,1.34,8.52c-1.31,0.89-2.65,1.75-3.92,2.64
		c-0.97-0.19-1.89-0.4-2.76-0.63c-1.89-3.32-1.91-7.41-4.17-10.54c-0.45,4.62-0.11,9.32-1.07,13.9c-0.64,0.05-1.92,0.13-2.56,0.18
		c-1.02,0.38-2.01,0.77-2.96,1.16c-0.39-0.7-1.18-2.1-1.58-2.81c-1.59-4.63-0.58-9.68-2.4-14.23c-2.99,4.02-1.59,9.97-5.13,13.63
		c-1.52,0.22-3.05,0.19-4.5,0.08c-1.35-2.31-2.11-4.89-3.24-7.27c-0.79,0.75-1.55,1.52-2.28,2.31c-0.55,0-1.63,0.01-2.18,0.01
		c-1.01-1.9-2.07-3.76-3.15-5.58c-0.68-2.13-1.4-4.23-2.13-6.3c-2,0.24-4.73,0.94-5.6-1.53c-2.45-3.12-2.85-9.1-7.83-8.92
		c-2.61-2.7-3.68-6.57-6.21-9.17c-4.49-1.7-4.76-7.07-7.74-10.22c-2.82-3.2-4.02-7.41-6.47-10.85c-1.01-3.14-2.01-6.28-3.26-9.31
		c-0.43-1.91-2.68-1.97-4.08-2.63c-0.78-3.32-1.76-6.78-5.19-8.2c-2.09-3.14-4.86-6-8.78-6.53c-2.66,2.55-6.16,3.84-9.7,4.48
		c-3.68,4.01-8.01,8.33-13.92,7.94c-2.04,2.82-4.79,5.54-8.59,4.93c-1.2-0.92-2.3-1.8-3.41-2.7c-0.12,0.65-0.35,1.94-0.46,2.58
		c-1.58-0.01-3.12-0.01-4.63,0c-0.51-1.03-1-2.04-1.45-3.04c-1.29,0-2.56,0.03-3.78,0.06c-0.31-2.14-0.57-4.27-0.68-6.41
		c-1.1-0.62-2.19-1.24-3.22-1.83c0.23-3.19-0.5-6.27-3-8.4c-0.33-2.16,0.54-4.89-1.49-6.37c-3.54,0.59-7.07,1-10.59,0.17
		c-8.16,0.06-16.18-1.65-24.34-1.23c0.39-1.76,0.87-3.48,1.37-5.2c-5.1,0.65-10.17,1.51-15.31,1.5c-0.94-1.4-1.87-2.77-2.8-4.12
		c0.51-1.29,1.01-2.57,1.6-3.82c1.65-3.24,5.63-2.21,8.62-2.94c6.44-0.29,12.77-1.54,19.12-2.66c2.7-2.24,6.47-1.22,9.42-2.89
		c1.59-0.8,3.16-1.68,4.78-2.51c1.27-0.77,2.54-1.58,3.84-2.36c-2.98-4.86-7.13-8.8-10.33-13.47c0.06-0.45,0.18-1.37,0.24-1.82
		c1.06-0.48,2.14-0.95,3.25-1.42c1.99-0.68,4-1.31,6.04-1.96c2.96-0.88,5.96-1.7,8.96-2.55c1.97-0.71,3.96-1.4,5.98-2.05
		c2.62-1.11,5.27-2.16,8.01-2.99c3.76-1.36,7.56-2.68,11.15-4.5c0.45-0.08,1.35-0.25,1.8-0.33c2.86-1.69,5.77-3.39,9.03-4.25
		c12.35-5.31,26.1-0.19,38.66-4.47c7.82-0.56,15.71-0.17,23.27,2.08c5.25,2.42,10.98,3.49,16.65,4.52
		c6.67,0.97,13.34-0.51,19.99-1.01c5.92-1.25,11.99-0.5,17.99-0.8C2712.81,1058.64,2721.79,1059.06,2730.46,1056.84z"/>
</g>
</svg>
